<?xml version="1.0" encoding="iso-8859-1"?>
<!-- Generator: Adobe Illustrator 19.0.0, SVG Export Plug-In . SVG Version: 6.00 Build 0)  -->
<svg version="1.1" id="Layer_1" xmlns="http://www.w3.org/2000/svg" xmlns:xlink="http://www.w3.org/1999/xlink" x="0px" y="0px"
	 viewBox="0 0 512.001 512.001" style="enable-background:new 0 0 512.001 512.001;" xml:space="preserve">
<g>
	<path style="fill:#2D527C;" d="M432.464,512.001h-37.767c-8.02,0-14.523-6.502-14.523-14.523s6.503-14.523,14.523-14.523h37.767
		c27.839,0,50.49-22.65,50.49-50.49V79.537c0-27.839-22.65-50.49-50.49-50.49H214.367c-8.021,0-14.523-6.502-14.523-14.523
		s6.502-14.523,14.523-14.523h218.098c43.855,0,79.536,35.679,79.536,79.536v352.928C512,476.322,476.321,512.001,432.464,512.001z"
		/>
	<path style="fill:#2D527C;" d="M289.694,512.001H79.536C35.679,512.001,0,476.322,0,432.465V79.537
		C0,35.68,35.679,0.001,79.536,0.001h32.684c8.021,0,14.523,6.502,14.523,14.523s-6.502,14.523-14.523,14.523H79.536
		c-27.839,0-50.49,22.65-50.49,50.49v352.928c0,27.839,22.65,50.49,50.49,50.49h210.158c8.02,0,14.523,6.502,14.523,14.523
		C304.218,505.499,297.714,512.001,289.694,512.001z"/>
</g>
<path style="fill:#CEE8FA;" d="M373.918,417.491H138.082c-23.105,0-41.835-18.73-41.835-41.835v-83.335
	c0-23.105,18.73-41.835,41.835-41.835h235.837c23.105,0,41.835,18.73,41.835,41.835v83.335
	C415.755,398.76,397.023,417.491,373.918,417.491z"/>
<g>
	<path style="fill:#2D527C;" d="M373.918,432.013H138.082c-31.077,0-56.358-25.282-56.358-56.358v-83.335
		c0-31.077,25.282-56.358,56.358-56.358h235.837c31.077,0,56.36,25.282,56.36,56.358v83.335
		C430.278,406.731,404.995,432.013,373.918,432.013z M138.082,265.007c-15.06,0-27.312,12.253-27.312,27.312v83.335
		c0,15.06,12.253,27.312,27.312,27.312h235.837c15.06,0,27.314-12.253,27.314-27.312v-83.335c0-15.06-12.253-27.312-27.314-27.312
		H138.082z"/>
	<path style="fill:#2D527C;" d="M182.941,215.598v-41.872c0-3.073-0.431-5.467-1.711-9.488l-20.726-69.685h26.275
		c0,0,10.024,44.984,12.368,44.984c2.306,0,12.15-45.028,12.15-45.028l25.465,0.039l-21.586,69.37
		c-0.773,2.707-1.704,7.895-1.704,10.15v41.53h-30.532V215.598z"/>
	<path style="fill:#2D527C;" d="M263.315,217.419c-16.514,0-27.608-9.995-27.608-24.871v-49.45
		c0-14.773,11.096-24.699,27.608-24.699c16.773,0,27.608,10.031,27.608,25.556v48.593
		C290.923,207.424,279.829,217.419,263.315,217.419z M263.315,142.134c-2.727,0-4.557,2.106-4.557,5.243v40.721
		c0,3.866,2.354,5.243,4.557,5.243s4.557-1.377,4.557-5.243v-40.721C267.872,144.339,265.956,142.134,263.315,142.134z"/>
	<path style="fill:#2D527C;" d="M332.584,217.419l-3.111-4.768c-0.365-0.559-1.156-0.617-1.59-0.11
		c-1.486,1.731-5.279,4.878-13.236,4.878c-5.921,0-14.262-4.957-14.262-15.974v-83.046h20.655v64.91
		c0,3.602,2.363,5.243,4.557,5.243c2.103,0,4.557-1.374,4.557-5.243v-64.91h21.34v99.02H332.584z"/>
	<polygon style="fill:#2D527C;" points="161.406,387.442 161.406,307.803 161.336,305.643 142.588,305.643 142.597,282.772 
		202.569,282.772 202.493,305.643 183.62,305.643 183.68,308.1 183.68,387.442 	"/>
	<path style="fill:#2D527C;" d="M241.187,389.263l-2.611-3.83c-0.41-0.6-1.274-0.63-1.725-0.062
		c-1.234,1.548-4.289,3.892-11.466,3.892c-5.07,0-12.211-4.251-12.211-13.704v-72.216h17.556v56.393
		c0,3.303,2.181,4.806,4.207,4.806c2.096,0,4.209-1.486,4.209-4.806v-56.393h18.152v85.92H241.187z"/>
	<path style="fill:#2D527C;" d="M298.522,389.263c-6.991,0-8.604-2.245-9.887-3.252c-0.334-0.261-0.813-0.221-1.108,0.084
		l-3.067,3.168h-17.553v-110.55h18.45v25.795c0,2.072,1.175,3.015,2.268,3.015c1.053,0,1.68-0.627,2.632-1.579
		c1.776-1.775,4.069-2.601,7.221-2.601c4.569,0,15.197,2.616,15.197,26.839v31.196C312.673,379.881,307.912,389.263,298.522,389.263
		z M287.05,368.765c0.752,0.896,1.997,1.3,2.963,1.3c1.13,0,3.76-0.453,3.76-4.656v-37.467c0-2.784-1.51-4.656-3.76-4.656
		c-2.656,0-4.658,2.45-4.658,5.7v35.675C285.356,366.398,285.924,367.776,287.05,368.765z"/>
	<path style="fill:#2D527C;" d="M343.898,389.263c-14.562,0-23.257-9.922-23.257-26.541v-37.019c0-16.504,12.85-22.36,23.854-22.36
		c17.004,0,24.749,13.371,24.749,25.795v11.534h-27.209l0.042,0.109v23.435c0,3.763,2.174,5.105,4.209,5.105
		c2.039,0,4.207-1.737,4.207-4.955v-6.938l18.916-0.046l-0.466,8.924C368.946,385.279,355.326,389.263,343.898,389.263z
		 M346.139,318.359c-2.022,0-4.061,1.532-4.061,4.954v7.463c0,1.415,1.217,2.568,2.716,2.568c3.676,0,5.7,0,5.7-2.568
		C350.496,321.489,350.496,318.359,346.139,318.359z"/>
</g>
<g>
</g>
<g>
</g>
<g>
</g>
<g>
</g>
<g>
</g>
<g>
</g>
<g>
</g>
<g>
</g>
<g>
</g>
<g>
</g>
<g>
</g>
<g>
</g>
<g>
</g>
<g>
</g>
<g>
</g>
</svg>
